<svg width="142" height="47" viewBox="0 0 142 47" fill="none" xmlns="http://www.w3.org/2000/svg">
<path d="M17.4889 0H18.7517C23.1357 0.0963223 27.4482 1.87828 30.5456 5.03284C29.4019 6.21279 28.2344 7.34457 27.1146 8.52452C25.3753 6.93521 23.2786 5.7071 20.9913 5.27365C17.6081 4.55123 13.9627 5.2014 11.1274 7.15193C8.03004 9.19878 5.93335 12.6664 5.48066 16.3748C4.98032 20.035 6.00483 23.8879 8.3636 26.7294C10.6271 29.4987 14.0818 31.2325 17.6557 31.3529C20.9913 31.5455 24.4699 30.5101 26.9002 28.1502C28.8063 26.4886 29.6878 23.9602 29.9737 21.504C26.0186 21.504 22.0635 21.528 18.1084 21.504V16.5434H34.7627C35.6205 21.8652 34.3815 27.8612 30.3788 31.666C27.7103 34.363 24.0172 35.9523 20.2527 36.2653C16.6074 36.6266 12.8429 35.9282 9.60255 34.1463C5.71892 32.0512 2.62155 28.5114 1.09669 24.3455C-0.33287 20.5166 -0.356696 16.1821 0.977557 12.3293C2.19268 8.81349 4.52762 5.7071 7.52969 3.53984C10.4126 1.39667 13.915 0.216725 17.4889 0Z" fill="#4285F4"/>
<path d="M113.031 1.25195H118.13V35.639C116.438 35.639 114.723 35.663 113.031 35.6149C113.055 24.1766 113.031 12.7143 113.031 1.25195Z" fill="#34A853"/>
<path d="M46.103 13.1716C49.248 12.5696 52.6552 13.2439 55.2522 15.1462C57.611 16.8318 59.255 19.4807 59.7553 22.3703C60.3986 25.7175 59.5885 29.3777 57.4442 32.0266C55.1331 34.9885 51.3447 36.5778 47.6517 36.337C44.2684 36.1443 40.9804 34.4346 38.9791 31.6413C36.7156 28.559 36.1676 24.3208 37.4065 20.7088C38.6455 16.8318 42.1479 13.87 46.103 13.1716ZM46.8178 17.7469C45.5312 18.084 44.3399 18.8305 43.4822 19.89C41.171 22.6834 41.314 27.2346 43.8634 29.8352C45.3168 31.3282 47.5088 32.0266 49.534 31.6172C51.4162 31.2801 53.0602 30.0038 53.9656 28.3182C55.5381 25.4526 55.0854 21.5034 52.679 19.264C51.1303 17.8191 48.8668 17.2171 46.8178 17.7469Z" fill="#EA4335"/>
<path d="M71.3565 13.1724C74.9542 12.4741 78.8855 13.4855 81.5779 16.038C85.9618 20.0113 86.4384 27.4522 82.6977 32.0275C80.4342 34.9172 76.765 36.5065 73.1435 36.338C69.6887 36.2416 66.2816 34.5078 64.2326 31.6422C61.9214 28.4877 61.4211 24.1532 62.7315 20.4688C64.0419 16.7123 67.4729 13.8467 71.3565 13.1724ZM72.0713 17.7477C70.7847 18.0849 69.5934 18.8314 68.7357 19.8668C66.4484 22.612 66.5437 27.091 68.9977 29.7158C70.4511 31.281 72.7146 32.0516 74.8113 31.6182C76.6697 31.257 78.3375 30.0048 79.2429 28.3191C80.7916 25.4294 80.3389 21.4802 77.9087 19.2407C76.36 17.7959 74.0965 17.218 72.0713 17.7477Z" fill="#FBBC05"/>
<path d="M92.7789 14.5679C95.5188 12.8341 99.1642 12.3525 102.119 13.8455C103.048 14.2548 103.81 14.9532 104.549 15.6515C104.573 15.0013 104.549 14.3271 104.573 13.6528C106.169 13.6769 107.765 13.6528 109.386 13.6769V34.9159C109.362 38.1186 108.552 41.514 106.264 43.8498C103.763 46.4264 99.9266 47.2211 96.4719 46.6913C92.7789 46.1375 89.5623 43.4164 88.1328 39.9728C89.5623 39.2745 91.0634 38.7207 92.5406 38.0705C93.3745 40.0451 95.0661 41.7307 97.1867 42.116C99.3072 42.5013 101.761 41.9715 103.143 40.1896C104.62 38.3594 104.62 35.8551 104.549 33.6156C103.453 34.6992 102.19 35.6624 100.665 36.0236C97.3534 36.9628 93.7081 35.8069 91.1587 33.5433C88.5855 31.2798 87.0606 27.7881 87.2036 24.3205C87.2751 20.3954 89.467 16.6147 92.7789 14.5679ZM97.7108 17.6502C96.2575 17.891 94.8994 18.7097 93.9702 19.8415C91.7305 22.5385 91.7305 26.849 93.994 29.4978C95.2806 31.063 97.3534 31.9299 99.3548 31.7132C101.237 31.5206 102.976 30.3165 103.906 28.655C105.478 25.8376 105.216 22.0088 103.096 19.5526C101.785 18.0355 99.6884 17.289 97.7108 17.6502Z" fill="#4285F4"/>
<path d="M124.249 15.7964C127.109 13.0994 131.516 12.1843 135.186 13.605C138.664 14.9295 140.88 18.2767 142 21.7202C136.83 23.8874 131.683 26.0306 126.513 28.1979C127.228 29.5705 128.324 30.8226 129.801 31.3283C131.874 32.0748 134.352 31.8099 136.091 30.4133C136.782 29.8835 137.33 29.1852 137.854 28.5109C139.165 29.4019 140.475 30.2688 141.785 31.1598C139.927 33.9772 136.806 35.9518 133.446 36.2648C129.729 36.7224 125.774 35.2775 123.368 32.3397C119.413 27.7162 119.794 19.9623 124.249 15.7964ZM126.799 20.2513C125.989 21.4312 125.655 22.8761 125.679 24.2968C129.134 22.852 132.589 21.4071 136.043 19.9382C135.471 18.5897 134.09 17.771 132.684 17.5543C130.42 17.1449 128.062 18.373 126.799 20.2513Z" fill="#EA4335"/>
</svg>
