<svg width="61" height="60" viewBox="0 0 61 60" fill="none" xmlns="http://www.w3.org/2000/svg">
<circle cx="30.2727" cy="29.75" r="29.75" fill="#FF4A60"/>
<path d="M31.6181 39.1189L25.924 39.0124C24.0804 38.9754 22.2322 39.0494 20.4248 38.6652C17.6752 38.0912 17.4804 35.2767 17.2766 32.9158C16.9958 29.5968 17.1045 26.2175 17.6345 22.9262C17.9337 21.0794 19.1112 19.9774 20.9321 19.8575C27.0791 19.4223 33.267 19.4739 39.4004 19.6769C40.0482 19.6955 40.7004 19.7973 41.3391 19.9131C44.492 20.4778 44.5689 23.6673 44.7733 26.3522C44.9771 29.0649 44.891 31.7914 44.5015 34.4856C44.1889 36.7163 43.5909 38.5869 41.0673 38.7675C37.9054 39.0036 34.816 39.1937 31.6452 39.1332C31.6453 39.1189 31.6271 39.1189 31.6181 39.1189ZM28.2705 33.4714C30.6533 32.0733 32.9906 30.6985 35.3598 29.3098C32.9725 27.9117 30.6397 26.5369 28.2705 25.1482V33.4714Z" fill="white"/>
</svg>
