<svg width="61" height="60" viewBox="0 0 61 60" fill="none" xmlns="http://www.w3.org/2000/svg">
<circle cx="30.6919" cy="29.75" r="29.75" fill="url(#paint0_linear_98453_41551)"/>
<path fill-rule="evenodd" clip-rule="evenodd" d="M18.5818 29.7506C18.5818 24.9131 18.5818 22.4944 19.7345 20.7523C20.2493 19.9743 20.9155 19.3081 21.6934 18.7933C23.4356 17.6406 25.8543 17.6406 30.6917 17.6406C35.5292 17.6406 37.9479 17.6406 39.69 18.7933C40.468 19.3081 41.1342 19.9743 41.6489 20.7523C42.8017 22.4944 42.8017 24.9131 42.8017 29.7506C42.8017 34.588 42.8017 37.0067 41.6489 38.7488C41.1342 39.5268 40.468 40.193 39.69 40.7078C37.9479 41.8605 35.5292 41.8605 30.6917 41.8605C25.8543 41.8605 23.4356 41.8605 21.6934 40.7078C20.9155 40.193 20.2493 39.5268 19.7345 38.7488C18.5818 37.0067 18.5818 34.588 18.5818 29.7506ZM36.9612 29.7502C36.9612 33.2128 34.1543 36.0197 30.6918 36.0197C27.2292 36.0197 24.4223 33.2128 24.4223 29.7502C24.4223 26.2877 27.2292 23.4808 30.6918 23.4808C34.1543 23.4808 36.9612 26.2877 36.9612 29.7502ZM30.6918 33.8986C32.9828 33.8986 34.8401 32.0413 34.8401 29.7502C34.8401 27.4592 32.9828 25.6019 30.6918 25.6019C28.4007 25.6019 26.5434 27.4592 26.5434 29.7502C26.5434 32.0413 28.4007 33.8986 30.6918 33.8986ZM37.2088 24.6387C38.0223 24.6387 38.6819 23.9791 38.6819 23.1655C38.6819 22.352 38.0223 21.6924 37.2088 21.6924C36.3952 21.6924 35.7356 22.352 35.7356 23.1655C35.7356 23.9791 36.3952 24.6387 37.2088 24.6387Z" fill="white"/>
<defs>
<linearGradient id="paint0_linear_98453_41551" x1="20.013" y1="-2.95962" x2="30.6919" y2="59.5" gradientUnits="userSpaceOnUse">
<stop stop-color="#5C42FB"/>
<stop offset="0.487216" stop-color="#FD2E47"/>
<stop offset="1" stop-color="#FFCC19"/>
</linearGradient>
</defs>
</svg>
