<svg width="60" height="60" viewBox="0 0 60 60" fill="none" xmlns="http://www.w3.org/2000/svg">
<circle cx="29.75" cy="29.75" r="29.75" fill="#1CA0FF"/>
<path d="M33.6172 20.8113V20.8071H34.6955L35.0895 20.8858C35.3522 20.9369 35.5906 21.0039 35.8049 21.0867C36.0192 21.1695 36.2266 21.2662 36.427 21.3766C36.6275 21.487 36.8093 21.5996 36.9724 21.7141C37.1341 21.8273 37.2793 21.9474 37.4079 22.0744C37.535 22.2028 37.7334 22.236 38.003 22.1738C38.2725 22.1117 38.5629 22.0254 38.8739 21.915C39.185 21.8046 39.4926 21.6803 39.7967 21.5423C40.1008 21.4042 40.2861 21.3165 40.3524 21.2793C40.4174 21.2406 40.452 21.2199 40.4561 21.2171L40.4602 21.2109L40.481 21.2006L40.5017 21.1902L40.5225 21.1799L40.5432 21.1695L40.5473 21.1633L40.5536 21.1592L40.5598 21.155L40.5639 21.1488L40.5847 21.1426L40.6054 21.1385L40.6013 21.1695L40.595 21.2006L40.5847 21.2316L40.5743 21.2627L40.5639 21.2834L40.5536 21.3041L40.5432 21.3352C40.5363 21.3559 40.5294 21.3835 40.5225 21.418C40.5156 21.4525 40.4499 21.5906 40.3255 21.8322C40.201 22.0738 40.0455 22.3188 39.8589 22.5673C39.6723 22.8158 39.505 23.0035 39.3571 23.1305C39.2078 23.2589 39.1089 23.3487 39.0605 23.3997C39.0122 23.4522 38.9534 23.5005 38.8843 23.5447L38.7806 23.613L38.7599 23.6234L38.7391 23.6337L38.735 23.64L38.7288 23.6441L38.7225 23.6482L38.7184 23.6545L38.6976 23.6648L38.6769 23.6752L38.6728 23.6814L38.6665 23.6855L38.6603 23.6897L38.6562 23.6959L38.652 23.7021L38.6458 23.7062L38.6396 23.7104L38.6354 23.7166H38.7391L39.3197 23.5923C39.7068 23.5095 40.0766 23.4094 40.4291 23.2921L40.989 23.1057L41.0512 23.085L41.0823 23.0746L41.1031 23.0643L41.1238 23.0539L41.1446 23.0436L41.1653 23.0332L41.2068 23.027L41.2482 23.0229V23.0643L41.2379 23.0684L41.2275 23.0746L41.2234 23.0808L41.2171 23.085L41.2109 23.0891L41.2068 23.0953L41.2026 23.1016L41.1964 23.1057L41.1902 23.1098L41.186 23.1161L41.1819 23.1223L41.1757 23.1264L41.1653 23.1471L41.1549 23.1678L41.1487 23.172C41.1459 23.1761 41.0582 23.2934 40.8853 23.524C40.7125 23.7559 40.6192 23.8733 40.6054 23.876C40.5916 23.8802 40.5722 23.9009 40.5473 23.9382C40.5238 23.9768 40.3773 24.1307 40.1077 24.3999C39.8382 24.6691 39.5741 24.9086 39.3156 25.1185C39.0557 25.3297 38.9244 25.5893 38.9216 25.8971C38.9175 26.2036 38.9016 26.5501 38.8739 26.9366C38.8463 27.3232 38.7944 27.7408 38.7184 28.1895C38.6424 28.6381 38.5249 29.1455 38.3659 29.7115C38.2069 30.2775 38.0133 30.8297 37.7852 31.3681C37.5571 31.9065 37.3187 32.3897 37.0698 32.8177C36.821 33.2456 36.5929 33.608 36.3855 33.9048C36.1782 34.2016 35.9674 34.4812 35.7531 34.7435C35.5388 35.0058 35.2679 35.3012 34.9402 35.6298C34.6112 35.957 34.4315 36.1365 34.4011 36.1682C34.3693 36.1986 34.2338 36.3118 33.9946 36.5078C33.7568 36.7052 33.5011 36.9026 33.2274 37.1001C32.955 37.2961 32.7048 37.4597 32.4767 37.5908C32.2486 37.722 31.9735 37.8718 31.6514 38.0402C31.3307 38.21 30.9837 38.3674 30.6104 38.5123C30.2372 38.6573 29.8432 38.7919 29.4284 38.9161C29.0137 39.0404 28.6128 39.137 28.2257 39.206C27.8387 39.2751 27.3997 39.3337 26.909 39.3821L26.1728 39.4545V39.4649H24.8249V39.4545L24.6487 39.4442C24.5312 39.4373 24.4344 39.4304 24.3584 39.4235C24.2823 39.4166 23.9955 39.3786 23.4978 39.3096C23.0001 39.2406 22.6096 39.1715 22.3262 39.1025C22.0428 39.0335 21.6211 38.9023 21.0613 38.7091C20.5014 38.5158 20.0224 38.3204 19.6242 38.123C19.2275 37.927 18.9786 37.8027 18.8777 37.7503C18.7782 37.6992 18.6662 37.6357 18.5418 37.5598L18.3551 37.4459L18.351 37.4397L18.3448 37.4355L18.3386 37.4314L18.3344 37.4252L18.3137 37.4148L18.2929 37.4045L18.2888 37.3982L18.2826 37.3941L18.2763 37.39L18.2722 37.3838L18.2681 37.3775L18.2618 37.3734H18.2515V37.332L18.2722 37.3361L18.2929 37.3423L18.3863 37.3527C18.4485 37.3596 18.6178 37.3699 18.8943 37.3838C19.1708 37.3976 19.4645 37.3976 19.7756 37.3838C20.0866 37.3699 20.4046 37.3389 20.7295 37.2906C21.0544 37.2423 21.438 37.1594 21.8804 37.0421C22.3227 36.9247 22.7292 36.7853 23.0997 36.6238C23.4688 36.4609 23.7314 36.3394 23.8877 36.2593C24.0425 36.1806 24.2789 36.0343 24.5968 35.8203L25.0738 35.4993L25.0779 35.4931L25.0841 35.489L25.0904 35.4848L25.0945 35.4786L25.0987 35.4724L25.1049 35.4683L25.1111 35.4641L25.1152 35.4579L25.136 35.4517L25.1567 35.4476L25.1609 35.4269L25.1671 35.4062L25.1733 35.402L25.1775 35.3958L25.0116 35.3854C24.901 35.3785 24.7938 35.3716 24.6901 35.3647C24.5865 35.3578 24.424 35.3268 24.2028 35.2716C23.9817 35.2163 23.7432 35.1335 23.4874 35.0231C23.2317 34.9126 22.9828 34.7815 22.7409 34.6296C22.499 34.4778 22.3241 34.3514 22.2163 34.2507C22.1098 34.1512 21.9716 34.0104 21.8016 33.8282C21.6329 33.6446 21.4864 33.4562 21.3619 33.2629C21.2375 33.0696 21.1186 32.8466 21.0053 32.594L20.8332 32.2171L20.8228 32.1861L20.8124 32.155L20.8062 32.1343L20.8021 32.1136L20.8332 32.1177L20.8643 32.124L21.0924 32.155C21.2444 32.1757 21.4829 32.1826 21.8078 32.1757C22.1327 32.1688 22.3573 32.155 22.4817 32.1343C22.6061 32.1136 22.6822 32.0998 22.7098 32.0929L22.7513 32.0825L22.8031 32.0722L22.855 32.0618L22.8591 32.0556L22.8653 32.0515L22.8716 32.0473L22.8757 32.0411L22.8342 32.0308L22.7928 32.0204L22.7513 32.0101L22.7098 31.9997L22.6683 31.9894C22.6407 31.9825 22.5923 31.9687 22.5232 31.9479C22.4541 31.9272 22.2674 31.8513 21.9633 31.7202C21.6592 31.589 21.4172 31.4613 21.2375 31.3371C21.0574 31.2125 20.8856 31.0762 20.7233 30.9291C20.5615 30.78 20.3839 30.5881 20.1903 30.3534C19.9968 30.1188 19.824 29.8461 19.6719 29.5355C19.5199 29.2249 19.4058 28.9281 19.3298 28.645C19.254 28.3637 19.2041 28.0761 19.1805 27.7857L19.1431 27.3508L19.1639 27.3549L19.1846 27.3612L19.2053 27.3715L19.2261 27.3819L19.2468 27.3922L19.2676 27.4026L19.589 27.5475C19.8033 27.6442 20.0694 27.727 20.3873 27.796C20.7053 27.865 20.8954 27.903 20.9576 27.9099L21.0509 27.9203H21.2375L21.2334 27.9141L21.2272 27.9099L21.2209 27.9058L21.2168 27.8996L21.2127 27.8934L21.2064 27.8892L21.2002 27.8851L21.196 27.8789L21.1753 27.8685L21.1546 27.8581L21.1504 27.8519L21.1442 27.8478L21.138 27.8437L21.1338 27.8374L21.1131 27.8271L21.0924 27.8167L21.0882 27.8105C21.0841 27.8077 21.0246 27.7636 20.9099 27.678C20.7965 27.591 20.6776 27.4785 20.5532 27.3405C20.4288 27.2024 20.3044 27.0574 20.18 26.9056C20.0553 26.7534 19.9443 26.5906 19.8482 26.419C19.7514 26.2464 19.6491 26.0269 19.5413 25.7604C19.4348 25.4954 19.354 25.2283 19.2987 24.9591C19.2434 24.6898 19.2123 24.4241 19.2053 24.1618C19.1984 23.8995 19.2053 23.6752 19.2261 23.4888C19.2468 23.3024 19.2883 23.0919 19.3505 22.8572C19.4127 22.6225 19.5026 22.374 19.6201 22.1117L19.7963 21.7183L19.8067 21.6872L19.8171 21.6562L19.8233 21.652L19.8274 21.6458L19.8316 21.6396L19.8378 21.6354L19.844 21.6396L19.8482 21.6458L19.8523 21.652L19.8585 21.6562L19.8648 21.6603L19.8689 21.6665L19.8731 21.6727L19.8793 21.6769L19.8896 21.6976L19.9 21.7183L19.9063 21.7224L19.9104 21.7286L20.1903 22.0392C20.377 22.2463 20.5982 22.4776 20.8539 22.733C21.1097 22.9883 21.2514 23.1209 21.279 23.1305C21.3067 23.1416 21.3412 23.1733 21.3827 23.2258C21.4241 23.2769 21.5624 23.3991 21.7974 23.5923C22.0324 23.7856 22.34 24.0099 22.7202 24.2653C23.1004 24.5207 23.522 24.7727 23.9851 25.0212C24.4482 25.2697 24.9459 25.494 25.4781 25.6942C26.0104 25.8944 26.3836 26.0255 26.5979 26.0876C26.8122 26.1498 27.1785 26.2291 27.6969 26.3258C28.2154 26.4224 28.6059 26.4845 28.8685 26.5121C29.1312 26.5397 29.3109 26.5556 29.4077 26.5598L29.5529 26.5639L29.5487 26.5328L29.5425 26.5018L29.501 26.2429C29.4734 26.0704 29.4595 25.8288 29.4595 25.5182C29.4595 25.2075 29.4837 24.9211 29.5321 24.6588C29.5805 24.3965 29.6531 24.1307 29.7499 23.8615C29.8466 23.5923 29.9413 23.3763 30.0339 23.2134C30.128 23.0519 30.251 22.8676 30.403 22.6605C30.5551 22.4534 30.7521 22.2394 30.994 22.0185C31.236 21.7976 31.5125 21.6009 31.8235 21.4284C32.1345 21.2558 32.4214 21.1246 32.6841 21.0349C32.9467 20.9452 33.1679 20.8865 33.3476 20.8589C33.5274 20.8313 33.6172 20.8154 33.6172 20.8113Z" fill="white"/>
</svg>
