<svg width="61" height="60" viewBox="0 0 61 60" fill="none" xmlns="http://www.w3.org/2000/svg">
<path d="M60.3039 29.75C60.3039 46.1804 46.9844 59.5 30.5539 59.5C14.1235 59.5 0.803955 46.1804 0.803955 29.75C0.803955 13.3195 14.1235 0 30.5539 0C46.9844 0 60.3039 13.3195 60.3039 29.75Z" fill="#1C92FF"/>
<path d="M32.4292 42.0435V30.8282H36.3832L36.9752 26.4574H32.4291V23.6668C32.4291 22.4014 32.7982 21.5391 34.7042 21.5391L37.1352 21.538V17.6287C36.7147 17.5756 35.2716 17.4565 33.5929 17.4565C30.0879 17.4565 27.6882 19.4934 27.6882 23.2341V26.4574H23.7241V30.8282H27.6882V42.0434H32.4292V42.0435Z" fill="#FAF9F6"/>
</svg>
