<svg width="84" height="84" viewBox="0 0 84 84" fill="none" xmlns="http://www.w3.org/2000/svg">
<path d="M83.5 41.8938C83.5 64.7253 64.9914 83.2339 42.1599 83.2339C19.3284 83.2339 0.819824 64.7253 0.819824 41.8938C0.819824 19.0623 19.3284 0.553711 42.1599 0.553711C64.9914 0.553711 83.5 19.0623 83.5 41.8938Z" fill="#1C92FF"/>
<path d="M44.7659 58.9767V43.3921H50.2603L51.0829 37.3185H44.7657V33.4408C44.7657 31.6823 45.2786 30.484 47.9272 30.484L51.3052 30.4825V25.0503C50.721 24.9764 48.7156 24.811 46.3829 24.811C41.5124 24.811 38.1779 27.6414 38.1779 32.8394V37.3185H32.6694V43.3921H38.1779V58.9765H44.7659V58.9767Z" fill="white"/>
</svg>
