<svg width="1159" height="634" viewBox="0 0 1159 634" fill="none" xmlns="http://www.w3.org/2000/svg">
<rect width="1158.05" height="633.133" fill="#137AFD"/>
<path fill-rule="evenodd" clip-rule="evenodd" d="M293.266 78.5342C276.593 78.5342 263.076 92.0507 263.076 108.724V432.802C263.076 449.475 276.593 462.992 293.266 462.992H499.541V576.249C499.541 584.586 506.299 591.344 514.636 591.344H671.852C680.189 591.344 686.947 584.586 686.947 576.249V462.992H893.225C909.899 462.992 923.415 449.475 923.415 432.802V108.724C923.415 92.0507 909.899 78.5342 893.225 78.5342H293.266Z" fill="#0B0B0B"/>
<mask id="path-3-inside-1_98484_40935" fill="white">
<path fill-rule="evenodd" clip-rule="evenodd" d="M539.571 435.695H471.104V554.161C471.104 562.497 477.862 569.256 486.199 569.256H643.415C651.751 569.256 658.509 562.497 658.509 554.161V435.695H589.97C589.43 449.147 578.355 459.887 564.771 459.887C551.186 459.887 540.111 449.147 539.571 435.695Z"/>
</mask>
<path fill-rule="evenodd" clip-rule="evenodd" d="M539.571 435.695H471.104V554.161C471.104 562.497 477.862 569.256 486.199 569.256H643.415C651.751 569.256 658.509 562.497 658.509 554.161V435.695H589.97C589.43 449.147 578.355 459.887 564.771 459.887C551.186 459.887 540.111 449.147 539.571 435.695Z" fill="white"/>
<path d="M471.104 435.695V431.578H466.987V435.695H471.104ZM539.571 435.695L543.685 435.53L543.526 431.578H539.571V435.695ZM658.509 435.695H662.626V431.578H658.509V435.695ZM589.97 435.695V431.578H586.015L585.856 435.53L589.97 435.695ZM471.104 439.812H539.571V431.578H471.104V439.812ZM475.22 554.161V435.695H466.987V554.161H475.22ZM486.199 565.139C480.135 565.139 475.22 560.224 475.22 554.161H466.987C466.987 564.771 475.588 573.372 486.199 573.372V565.139ZM643.415 565.139H486.199V573.372H643.415V565.139ZM654.393 554.161C654.393 560.224 649.478 565.139 643.415 565.139V573.372C654.025 573.372 662.626 564.771 662.626 554.161H654.393ZM654.393 435.695V554.161H662.626V435.695H654.393ZM589.97 439.812H658.509V431.578H589.97V439.812ZM585.856 435.53C585.405 446.783 576.136 455.77 564.771 455.77V464.004C580.573 464.004 593.456 451.511 594.083 435.86L585.856 435.53ZM564.771 455.77C553.405 455.77 544.136 446.783 543.685 435.53L535.458 435.86C536.085 451.511 548.968 464.004 564.771 464.004V455.77Z" fill="#0B0B0B" mask="url(#path-3-inside-1_98484_40935)"/>
<rect x="236.697" y="58.5049" width="656.222" height="380.341" rx="28.1316" fill="white" stroke="#0B0B0B" stroke-width="4.11681"/>
<mask id="path-6-inside-2_98484_40935" fill="white">
<path d="M260.342 106.85C260.342 93.2079 271.401 82.1489 285.043 82.1489H844.576C858.218 82.1489 869.277 93.2079 869.277 106.85V390.501C869.277 404.143 858.218 415.202 844.576 415.202H285.043C271.401 415.202 260.342 404.143 260.342 390.501V106.85Z"/>
</mask>
<path d="M260.342 106.85C260.342 93.2079 271.401 82.1489 285.043 82.1489H844.576C858.218 82.1489 869.277 93.2079 869.277 106.85V390.501C869.277 404.143 858.218 415.202 844.576 415.202H285.043C271.401 415.202 260.342 404.143 260.342 390.501V106.85Z" fill="#F9FAFC"/>
<path d="M285.043 86.2657H844.576V78.0321H285.043V86.2657ZM865.16 106.85V390.501H873.394V106.85H865.16ZM844.576 411.085H285.043V419.319H844.576V411.085ZM264.459 390.501V106.85H256.225V390.501H264.459ZM285.043 411.085C273.674 411.085 264.459 401.869 264.459 390.501H256.225C256.225 406.416 269.127 419.319 285.043 419.319V411.085ZM865.16 390.501C865.16 401.869 855.944 411.085 844.576 411.085V419.319C860.491 419.319 873.394 406.416 873.394 390.501H865.16ZM844.576 86.2657C855.944 86.2657 865.16 95.4815 865.16 106.85H873.394C873.394 90.9342 860.492 78.0321 844.576 78.0321V86.2657ZM285.043 78.0321C269.127 78.0321 256.225 90.9342 256.225 106.85H264.459C264.459 95.4815 273.674 86.2657 285.043 86.2657V78.0321Z" fill="#0B0B0B" mask="url(#path-6-inside-2_98484_40935)"/>
<path d="M266.551 107.649C266.551 97.0387 275.152 88.4373 285.763 88.4373H414.27V408.974H285.763C275.152 408.974 266.551 400.372 266.551 389.762V107.649Z" fill="white"/>
<line x1="283.949" y1="199.361" x2="379.488" y2="199.361" stroke="#0B0B0B" stroke-width="4.11681" stroke-linecap="round"/>
<line x1="283.949" y1="127.514" x2="329.66" y2="127.514" stroke="#016BFF" stroke-width="4.11681" stroke-linecap="round"/>
<path d="M708.721 88.4373H843.634C854.245 88.4373 862.846 97.0387 862.846 107.649V389.762C862.846 400.372 854.245 408.974 843.634 408.974H708.721V88.4373Z" fill="white"/>
<line x1="416.324" y1="82.1489" x2="416.324" y2="413.382" stroke="#0B0B0B" stroke-width="4.11681"/>
<line x1="705.703" y1="82.1489" x2="705.703" y2="413.382" stroke="#0B0B0B" stroke-width="4.11681"/>
<rect x="447.709" y="116.005" width="225.353" height="35.1196" rx="17.5598" fill="white" stroke="#0B0B0B" stroke-width="4.11681"/>
<circle cx="749.906" cy="171.889" r="12.7812" fill="#016BFF" stroke="#0B0B0B" stroke-width="4.11681"/>
<line x1="775.496" y1="171.859" x2="837.676" y2="171.859" stroke="#0B0B0B" stroke-width="4.11681" stroke-linecap="round"/>
<circle cx="749.906" cy="214.132" r="12.7812" fill="#6B2EFF" stroke="#0B0B0B" stroke-width="4.11681"/>
<line x1="775.496" y1="214.103" x2="810.299" y2="214.103" stroke="#0B0B0B" stroke-width="4.11681" stroke-linecap="round"/>
<circle cx="749.906" cy="340.858" r="12.7812" fill="#016BFF" stroke="#0B0B0B" stroke-width="4.11681"/>
<line x1="775.496" y1="340.828" x2="837.675" y2="340.828" stroke="#0B0B0B" stroke-width="4.11681" stroke-linecap="round"/>
<circle cx="749.906" cy="256.374" r="12.7812" fill="#016BFF" stroke="#0B0B0B" stroke-width="4.11681"/>
<line x1="775.496" y1="256.345" x2="837.675" y2="256.345" stroke="#0B0B0B" stroke-width="4.11681" stroke-linecap="round"/>
<circle cx="749.906" cy="298.618" r="12.7812" fill="#6B2EFF" stroke="#0B0B0B" stroke-width="4.11681"/>
<line x1="775.496" y1="298.588" x2="826.958" y2="298.588" stroke="#0B0B0B" stroke-width="4.11681" stroke-linecap="round"/>
<line x1="736.008" y1="126.181" x2="795.38" y2="126.181" stroke="#0B0B0B" stroke-width="4.11681" stroke-linecap="round"/>
<rect x="447.711" y="173.949" width="228.729" height="214.351" rx="15.7811" fill="white" stroke="#0B0B0B" stroke-width="4.11681"/>
<line x1="465.898" y1="335.704" x2="658.895" y2="335.704" stroke="#0B0B0B" stroke-width="4.11681" stroke-linecap="round"/>
<line x1="465.898" y1="354.329" x2="610.079" y2="354.329" stroke="#0B0B0B" stroke-width="4.11681" stroke-linecap="round"/>
<rect x="479.287" y="202.393" width="196.468" height="125.763" rx="17.8395" fill="#137AFD"/>
<rect x="465.898" y="193.334" width="192.351" height="121.647" rx="15.7811" stroke="#0B0B0B" stroke-width="4.11681"/>
<line x1="283.951" y1="160.463" x2="379.489" y2="160.463" stroke="#0B0B0B" stroke-width="4.11681" stroke-linecap="round"/>
<line x1="283.951" y1="179.704" x2="342.406" y2="179.704" stroke="#0B0B0B" stroke-width="4.11681" stroke-linecap="round"/>
<line x1="283.951" y1="220.134" x2="360.551" y2="220.134" stroke="#0B0B0B" stroke-width="4.11681" stroke-linecap="round"/>
</svg>
