<svg width="274" height="242" viewBox="0 0 274 242" fill="none" xmlns="http://www.w3.org/2000/svg">
<mask id="mask0_3032_40302" style="mask-type:alpha" maskUnits="userSpaceOnUse" x="0" y="0" width="274" height="242">
<rect width="274" height="242" fill="#D9D9D9"/>
</mask>
<g mask="url(#mask0_3032_40302)">
<rect width="274" height="242" fill="#D9D9D9"/>
<rect width="274.501" height="273.565" transform="translate(-0.148926 -15.3664)" fill="#F1F0EE"/>
<rect x="26.7189" y="75.8082" width="71.1464" height="40.195" rx="7.41495" fill="#0B0B0B" stroke="#0B0B0B" stroke-width="2.11856"/>
<rect x="26.0046" y="75.8082" width="70.0074" height="38.0765" rx="7.41495" fill="white" stroke="#0B0B0B" stroke-width="2.11856"/>
<line x1="38.1691" y1="85.6064" x2="76.9531" y2="85.6064" stroke="#0B0B0B" stroke-width="2.11856" stroke-linecap="round"/>
<line x1="38.1691" y1="93.7872" x2="83.8463" y2="93.7872" stroke="#0B0B0B" stroke-width="2.11856" stroke-linecap="round"/>
<line x1="38.1691" y1="101.968" x2="81.4481" y2="101.968" stroke="#0B0B0B" stroke-width="2.11856" stroke-linecap="round"/>
<rect x="26.7556" y="125.303" width="71.3316" height="56.6385" rx="7.41495" fill="#0B0B0B" stroke="#0B0B0B" stroke-width="2.11856"/>
<rect x="25.9963" y="125.303" width="69.9721" height="54.1224" rx="7.41495" fill="white" stroke="#0B0B0B" stroke-width="2.11856"/>
<path d="M78.7663 161.386L70.641 153.289C70.498 153.144 70.3276 153.029 70.1396 152.951C69.9517 152.872 69.7499 152.832 69.5461 152.832C69.3423 152.832 69.1406 152.872 68.9526 152.951C68.7647 153.029 68.5942 153.144 68.4512 153.289L59.8841 161.827C59.7412 161.971 59.5707 162.086 59.3828 162.165C59.1948 162.243 58.993 162.284 58.7893 162.284C58.5855 162.284 58.3837 162.243 58.1958 162.165C58.0078 162.086 57.8373 161.971 57.6944 161.827L53.7374 157.883C53.5944 157.738 53.4239 157.624 53.236 157.545C53.048 157.467 52.8462 157.426 52.6425 157.426C52.4387 157.426 52.2369 157.467 52.049 157.545C51.861 157.624 51.6906 157.738 51.5476 157.883L44.959 164.449" fill="#81E644"/>
<path fill-rule="evenodd" clip-rule="evenodd" d="M78.7663 161.386L70.641 153.289C70.498 153.144 70.3276 153.029 70.1396 152.951C69.9517 152.872 69.7499 152.832 69.5461 152.832C69.3423 152.832 69.1406 152.872 68.9526 152.951C68.7647 153.029 68.5942 153.144 68.4512 153.289L59.8841 161.827C59.7412 161.971 59.5707 162.086 59.3828 162.165C59.1948 162.243 58.993 162.284 58.7893 162.284C58.5855 162.284 58.3837 162.243 58.1958 162.165C58.0078 162.086 57.8373 161.971 57.6944 161.827L53.7374 157.883C53.5944 157.738 53.4239 157.624 53.236 157.545C53.048 157.467 52.8462 157.426 52.6425 157.426C52.4387 157.426 52.2369 157.467 52.049 157.545C51.861 157.624 51.6906 157.738 51.5476 157.883L44.959 164.449V170.575C44.959 171.421 45.647 172.107 46.4957 172.107H77.2296C78.0783 172.107 78.7663 171.421 78.7663 170.575V161.386Z" fill="#81E644"/>
<path d="M76.7164 135.069H45.9825C45.1338 135.069 44.4458 135.755 44.4458 136.601V167.23C44.4458 168.076 45.1338 168.761 45.9825 168.761H76.7164C77.5651 168.761 78.2531 168.076 78.2531 167.23V136.601C78.2531 135.755 77.5651 135.069 76.7164 135.069Z" stroke="#0B0B0B" stroke-width="2.11856" stroke-linecap="round" stroke-linejoin="round"/>
<path d="M78.2531 158.041L70.1278 149.943C69.9849 149.799 69.8144 149.684 69.6265 149.605C69.4385 149.527 69.2367 149.487 69.033 149.487C68.8292 149.487 68.6274 149.527 68.4395 149.605C68.2515 149.684 68.081 149.799 67.9381 149.943L59.371 158.481C59.228 158.626 59.0575 158.741 58.8696 158.819C58.6816 158.898 58.4799 158.938 58.2761 158.938C58.0723 158.938 57.8705 158.898 57.6826 158.819C57.4946 158.741 57.3242 158.626 57.1812 158.481L53.2242 154.538C53.0812 154.393 52.9108 154.278 52.7228 154.2C52.5348 154.121 52.3331 154.081 52.1293 154.081C51.9255 154.081 51.7238 154.121 51.5358 154.2C51.3478 154.278 51.1774 154.393 51.0344 154.538L44.4458 161.104" stroke="#0B0B0B" stroke-width="2.11856" stroke-linecap="round" stroke-linejoin="round"/>
<path d="M57.2173 145.024C57.2173 145.704 56.663 146.262 55.9715 146.262C55.2801 146.262 54.7258 145.704 54.7258 145.024C54.7258 144.344 55.2801 143.786 55.9715 143.786C56.663 143.786 57.2173 144.344 57.2173 145.024Z" fill="black" stroke="#0B0B0B" stroke-width="2.11856"/>
<g filter="url(#filter0_d_3032_40302)">
<path d="M126.275 112.582L139.564 125.825L126.275 139.068V132.446H114.095C113.801 132.446 113.519 132.33 113.312 132.123C113.104 131.916 112.987 131.635 112.987 131.343V120.307C112.987 120.014 113.104 119.734 113.312 119.527C113.519 119.32 113.801 119.203 114.095 119.203H126.275V112.582Z" fill="#FFC224"/>
<path d="M126.275 112.582L139.564 125.825L126.275 139.068V132.446H114.095C113.801 132.446 113.519 132.33 113.312 132.123C113.104 131.916 112.987 131.635 112.987 131.343V120.307C112.987 120.014 113.104 119.734 113.312 119.527C113.519 119.32 113.801 119.203 114.095 119.203H126.275V112.582Z" stroke="#0B0B0B" stroke-width="2.11856" stroke-linecap="round" stroke-linejoin="round"/>
</g>
<rect x="152.546" y="76.7543" width="83.5923" height="106.319" rx="11.6521" fill="#0B0B0B" stroke="#0B0B0B" stroke-width="2.11856"/>
<rect x="151.331" y="73.2233" width="80.2841" height="105.653" rx="11.6521" fill="white" stroke="#0B0B0B" stroke-width="2.11856"/>
<rect x="151.331" y="73.2232" width="80.2841" height="105.653" rx="11.6521" fill="white" stroke="#0B0B0B" stroke-width="2.11856"/>
<rect x="203.375" y="159.621" width="14.8272" height="4.60153" rx="2.30077" fill="#1C92FF"/>
<rect x="202.389" y="158.635" width="13.2199" height="2.99426" rx="1.49713" stroke="#0B0B0B" stroke-width="2.11856"/>
<path d="M194.528 157.584L186.403 149.487C186.26 149.342 186.089 149.227 185.901 149.149C185.713 149.07 185.512 149.03 185.308 149.03C185.104 149.03 184.902 149.07 184.714 149.149C184.526 149.227 184.356 149.342 184.213 149.487L175.646 158.024C175.503 158.169 175.332 158.284 175.144 158.363C174.957 158.441 174.755 158.481 174.551 158.481C174.347 158.481 174.145 158.441 173.957 158.363C173.77 158.284 173.599 158.169 173.456 158.024L169.499 154.081C169.356 153.936 169.186 153.821 168.998 153.743C168.81 153.664 168.608 153.624 168.404 153.624C168.2 153.624 167.999 153.664 167.811 153.743C167.623 153.821 167.452 153.936 167.309 154.081L160.721 160.647" fill="#1C92FF"/>
<path fill-rule="evenodd" clip-rule="evenodd" d="M194.528 157.584L186.403 149.487C186.26 149.342 186.089 149.227 185.901 149.149C185.713 149.07 185.512 149.03 185.308 149.03C185.104 149.03 184.902 149.07 184.714 149.149C184.526 149.227 184.356 149.342 184.213 149.487L175.646 158.024C175.503 158.169 175.332 158.284 175.144 158.363C174.957 158.441 174.755 158.481 174.551 158.481C174.347 158.481 174.145 158.441 173.957 158.363C173.77 158.284 173.599 158.169 173.456 158.024L169.499 154.081C169.356 153.936 169.186 153.821 168.998 153.743C168.81 153.664 168.608 153.624 168.404 153.624C168.2 153.624 167.999 153.664 167.811 153.743C167.623 153.821 167.452 153.936 167.309 154.081L160.721 160.647V166.773C160.721 167.619 161.409 168.304 162.257 168.304H192.991C193.84 168.304 194.528 167.619 194.528 166.773V157.584Z" fill="#1C92FF"/>
<path d="M192.479 131.267H161.745C160.896 131.267 160.208 131.953 160.208 132.799V163.428C160.208 164.273 160.896 164.959 161.745 164.959H192.479C193.327 164.959 194.015 164.273 194.015 163.428V132.799C194.015 131.953 193.327 131.267 192.479 131.267Z" stroke="#0B0B0B" stroke-width="2.11856" stroke-linecap="round" stroke-linejoin="round"/>
<path d="M194.015 154.239L185.89 146.141C185.747 145.997 185.577 145.882 185.389 145.803C185.201 145.725 184.999 145.684 184.795 145.684C184.591 145.684 184.39 145.725 184.202 145.803C184.014 145.882 183.843 145.997 183.7 146.141L175.133 154.679C174.99 154.824 174.82 154.939 174.632 155.017C174.444 155.096 174.242 155.136 174.038 155.136C173.834 155.136 173.633 155.096 173.445 155.017C173.257 154.939 173.086 154.824 172.943 154.679L168.986 150.736C168.843 150.591 168.673 150.476 168.485 150.398C168.297 150.319 168.095 150.279 167.891 150.279C167.688 150.279 167.486 150.319 167.298 150.398C167.11 150.476 166.94 150.591 166.797 150.736L160.208 157.302" stroke="#0B0B0B" stroke-width="2.11856" stroke-linecap="round" stroke-linejoin="round"/>
<path d="M172.979 141.222C172.979 141.902 172.425 142.46 171.733 142.46C171.042 142.46 170.488 141.902 170.488 141.222C170.488 140.541 171.042 139.984 171.733 139.984C172.425 139.984 172.979 140.541 172.979 141.222Z" fill="black" stroke="#0B0B0B" stroke-width="2.11856"/>
<rect x="162.753" y="85.0927" width="60.3308" height="9.96993" rx="3.53093" fill="#FF4A60"/>
<rect x="160.922" y="82.7075" width="59.8175" height="8.72253" rx="1.76546" stroke="#0B0B0B" stroke-width="2.11856"/>
<line x1="160.974" y1="105.9" x2="199.758" y2="105.9" stroke="#0B0B0B" stroke-width="2.11856" stroke-linecap="round"/>
<line x1="160.974" y1="113.569" x2="206.916" y2="113.569" stroke="#0B0B0B" stroke-width="2.11856" stroke-linecap="round"/>
<line x1="202.387" y1="136.577" x2="220.72" y2="136.577" stroke="#0B0B0B" stroke-width="2.11856" stroke-linecap="round"/>
<line x1="202.387" y1="143.735" x2="223.788" y2="143.735" stroke="#0B0B0B" stroke-width="2.11856" stroke-linecap="round"/>
<line x1="202.387" y1="150.893" x2="217.141" y2="150.893" stroke="#0B0B0B" stroke-width="2.11856" stroke-linecap="round"/>
<line x1="160.974" y1="121.238" x2="204.359" y2="121.238" stroke="#0B0B0B" stroke-width="2.11856" stroke-linecap="round"/>
<g filter="url(#filter1_d_3032_40302)">
<circle cx="224.717" cy="87.069" r="24.0802" fill="white"/>
<circle cx="224.717" cy="87.069" r="23.0209" stroke="#0B0B0B" stroke-width="2.11856"/>
</g>
<circle cx="228.247" cy="88.6713" r="14.1739" fill="#81E644"/>
<path d="M231.638 83.3669L222.955 91.6231L218.62 87.495" stroke="#0B0B0B" stroke-width="2.11856" stroke-linecap="round" stroke-linejoin="round"/>
<path d="M225.129 101.059C232.972 101.059 239.33 94.7227 239.33 86.906C239.33 79.0893 232.972 72.7526 225.129 72.7526C217.285 72.7526 210.927 79.0893 210.927 86.906C210.927 94.7227 217.285 101.059 225.129 101.059Z" stroke="#0B0B0B" stroke-width="2.11856" stroke-linecap="round" stroke-linejoin="round"/>
</g>
<defs>
<filter id="filter0_d_3032_40302" x="111.928" y="111.523" width="30.8134" height="30.7227" filterUnits="userSpaceOnUse" color-interpolation-filters="sRGB">
<feFlood flood-opacity="0" result="BackgroundImageFix"/>
<feColorMatrix in="SourceAlpha" type="matrix" values="0 0 0 0 0 0 0 0 0 0 0 0 0 0 0 0 0 0 127 0" result="hardAlpha"/>
<feOffset dx="2.11856" dy="2.11856"/>
<feComposite in2="hardAlpha" operator="out"/>
<feColorMatrix type="matrix" values="0 0 0 0 0 0 0 0 0 0 0 0 0 0 0 0 0 0 1 0"/>
<feBlend mode="normal" in2="BackgroundImageFix" result="effect1_dropShadow_3032_40302"/>
<feBlend mode="normal" in="SourceGraphic" in2="effect1_dropShadow_3032_40302" result="shape"/>
</filter>
<filter id="filter1_d_3032_40302" x="200.637" y="62.9888" width="49.5725" height="49.5727" filterUnits="userSpaceOnUse" color-interpolation-filters="sRGB">
<feFlood flood-opacity="0" result="BackgroundImageFix"/>
<feColorMatrix in="SourceAlpha" type="matrix" values="0 0 0 0 0 0 0 0 0 0 0 0 0 0 0 0 0 0 127 0" result="hardAlpha"/>
<feOffset dx="1.41237" dy="1.41237"/>
<feComposite in2="hardAlpha" operator="out"/>
<feColorMatrix type="matrix" values="0 0 0 0 0.0431373 0 0 0 0 0.0431373 0 0 0 0 0.0431373 0 0 0 1 0"/>
<feBlend mode="normal" in2="BackgroundImageFix" result="effect1_dropShadow_3032_40302"/>
<feBlend mode="normal" in="SourceGraphic" in2="effect1_dropShadow_3032_40302" result="shape"/>
</filter>
</defs>
</svg>
