<svg width="274" height="242" viewBox="0 0 274 242" fill="none" xmlns="http://www.w3.org/2000/svg">
<mask id="mask0_3033_40814" style="mask-type:alpha" maskUnits="userSpaceOnUse" x="0" y="0" width="274" height="242">
<rect width="274" height="242" fill="#D9D9D9"/>
</mask>
<g mask="url(#mask0_3033_40814)">
<rect width="274" height="242" fill="#D9D9D9"/>
<rect width="274" height="274" transform="translate(-0.148438 -15.3911)" fill="#F1F0EE"/>
<rect x="202.133" y="136.798" width="52.6743" height="48.8184" rx="11.6521" fill="#0B0B0B" stroke="#0B0B0B" stroke-width="2.11856"/>
<rect x="202.133" y="132.357" width="50.5395" height="50.5395" rx="11.6521" fill="white" stroke="#0B0B0B" stroke-width="2.11856"/>
<path d="M235.681 143.742L231.388 148.034L240.51 157.243L244.846 152.907C244.969 152.785 245.068 152.64 245.135 152.48C245.202 152.32 245.236 152.148 245.236 151.974C245.236 151.801 245.202 151.629 245.135 151.469C245.068 151.308 244.969 151.163 244.846 151.041L237.546 143.742C237.425 143.618 237.279 143.52 237.119 143.453C236.959 143.386 236.787 143.352 236.613 143.352C236.44 143.352 236.268 143.386 236.108 143.453C235.948 143.52 235.802 143.618 235.681 143.742Z" fill="#81E644"/>
<path d="M221.658 172.288H213.802C213.455 172.288 213.122 172.15 212.876 171.905C212.631 171.659 212.493 171.326 212.493 170.979V163.663C212.492 163.493 212.525 163.325 212.59 163.168C212.654 163.01 212.749 162.867 212.869 162.747L232.508 143.108C232.63 142.984 232.775 142.886 232.935 142.819C233.096 142.752 233.268 142.717 233.441 142.717C233.615 142.717 233.787 142.752 233.947 142.819C234.107 142.886 234.252 142.984 234.374 143.108L241.673 150.407C241.797 150.529 241.895 150.674 241.962 150.834C242.029 150.994 242.064 151.166 242.064 151.34C242.064 151.513 242.029 151.685 241.962 151.845C241.895 152.006 241.797 152.151 241.673 152.273L221.658 172.288Z" stroke="#0B0B0B" stroke-width="2.11856" stroke-linecap="round" stroke-linejoin="round"/>
<path d="M228.204 147.412L237.369 156.577" stroke="#0B0B0B" stroke-width="2.11856" stroke-linecap="round" stroke-linejoin="round"/>
<path d="M241.297 172.288H221.658" stroke="#0B0B0B" stroke-width="2.11856" stroke-linecap="round" stroke-linejoin="round"/>
<rect x="20.6843" y="64.0059" width="53.3954" height="49.0833" rx="11.6521" fill="#0B0B0B" stroke="#0B0B0B" stroke-width="2.11856"/>
<rect x="20.6843" y="59.3969" width="50.5395" height="50.5395" rx="11.6521" fill="white" stroke="#0B0B0B" stroke-width="2.11856"/>
<path d="M46.9125 98.9558C53.5739 98.9558 58.9739 93.5557 58.9739 86.8944C58.9739 80.233 53.5739 74.8329 46.9125 74.8329C40.2512 74.8329 34.8511 80.233 34.8511 86.8944C34.8511 93.5557 40.2512 98.9558 46.9125 98.9558Z" fill="#5C42FB"/>
<path d="M44.3749 95.1493C51.0363 95.1493 56.4363 89.7492 56.4363 83.0879C56.4363 76.4265 51.0363 71.0264 44.3749 71.0264C37.7136 71.0264 32.3135 76.4265 32.3135 83.0879C32.3135 89.7492 37.7136 95.1493 44.3749 95.1493Z" stroke="#0B0B0B" stroke-width="2.11856" stroke-linecap="round" stroke-linejoin="round"/>
<path d="M52.9033 91.6163L59.8817 98.5947" stroke="#0B0B0B" stroke-width="2.11856" stroke-linecap="round" stroke-linejoin="round"/>
<path d="M98.9511 47.7147H175.817C182.252 47.7147 187.469 52.9315 187.469 59.3668V190.5C187.469 196.935 182.252 202.152 175.817 202.152H98.9511C92.5158 202.152 87.299 196.935 87.299 190.5V59.3668C87.299 52.9315 92.5158 47.7147 98.9511 47.7147Z" fill="#0B0B0B" stroke="#0B0B0B" stroke-width="2.11856"/>
<rect x="87.299" y="45.4395" width="94.9499" height="152.683" rx="11.6521" fill="white" stroke="#0B0B0B" stroke-width="2.11856"/>
<rect x="104.367" y="64.1896" width="34.6031" height="34.6031" rx="5.64948" fill="#FFC224"/>
<path d="M100.13 61.3287L131.908 93.107M131.908 61.3287L100.13 93.107" stroke="#0B0B0B" stroke-width="2.11856"/>
<rect x="99.0705" y="60.0315" width="34.0442" height="34.0442" rx="5.29639" stroke="#0B0B0B" stroke-width="2.11856"/>
<rect x="99.0705" y="172.961" width="72.7447" height="9.93569" rx="3.17783" stroke="#0B0B0B" stroke-width="2.11856"/>
<line x1="143.129" y1="66.7949" x2="168.291" y2="66.7949" stroke="black" stroke-width="2.11856" stroke-linecap="round"/>
<line x1="143.129" y1="75.677" x2="161.947" y2="75.677" stroke="black" stroke-width="2.11856" stroke-linecap="round"/>
<line x1="143.129" y1="85.1935" x2="171.463" y2="85.1935" stroke="black" stroke-width="2.11856" stroke-linecap="round"/>
<line x1="99.07" y1="107.399" x2="147.706" y2="107.399" stroke="#0B0B0B" stroke-width="2.11856" stroke-linecap="round"/>
<line x1="99.07" y1="119.453" x2="147.706" y2="119.453" stroke="#0B0B0B" stroke-width="2.11856" stroke-linecap="round"/>
<line x1="136.151" y1="138.804" x2="171.464" y2="138.804" stroke="#0B0B0B" stroke-width="2.11856" stroke-linecap="round"/>
<line x1="136.151" y1="148.955" x2="163.85" y2="148.955" stroke="#0B0B0B" stroke-width="2.11856" stroke-linecap="round"/>
<line x1="136.151" y1="159.106" x2="167.657" y2="159.106" stroke="#0B0B0B" stroke-width="2.11856" stroke-linecap="round"/>
<rect x="156.662" y="105.92" width="18.3986" height="5.70991" rx="2.85495" fill="#1C92FF"/>
<rect x="155.184" y="116.496" width="16.9145" height="4.22578" rx="2.11289" stroke="#0B0B0B" stroke-width="2.11856"/>
<rect x="155.184" y="104.442" width="16.9145" height="4.22578" rx="2.11289" stroke="#0B0B0B" stroke-width="2.11856"/>
<path d="M103.087 158.579L126.703 144.939C127.901 147.007 128.529 149.333 128.535 151.723C128.541 154.113 127.919 156.463 126.732 158.538C125.544 160.612 123.832 162.338 121.767 163.542C119.703 164.746 117.358 165.387 114.968 165.4C112.577 165.413 110.226 164.797 108.148 163.615C106.071 162.433 104.297 160.641 103.087 158.579Z" fill="#FF4A60"/>
<path d="M111.652 149.38V135.739" stroke="#0B0B0B" stroke-width="2.11856" stroke-linecap="round" stroke-linejoin="round"/>
<path d="M123.46 142.559L99.8442 156.2" stroke="#0B0B0B" stroke-width="2.11856" stroke-linecap="round" stroke-linejoin="round"/>
<path d="M98.2387 151.88C98.0836 151.056 98.0075 150.219 98.0114 149.38C98.0096 146.559 98.8834 143.806 100.512 141.503C102.141 139.2 104.445 137.459 107.105 136.52V146.751L98.2387 151.88Z" stroke="#0B0B0B" stroke-width="2.11856" stroke-linecap="round" stroke-linejoin="round"/>
<path d="M111.653 135.739C114.043 135.739 116.391 136.367 118.462 137.561C120.533 138.754 122.254 140.471 123.453 142.539C124.652 144.607 125.286 146.953 125.292 149.344C125.299 151.734 124.677 154.084 123.489 156.158C122.301 158.232 120.589 159.958 118.525 161.162C116.46 162.367 114.115 163.007 111.725 163.02C109.335 163.033 106.983 162.418 104.906 161.236C102.828 160.054 101.098 158.347 99.8877 156.285" stroke="#0B0B0B" stroke-width="2.11856" stroke-linecap="round" stroke-linejoin="round"/>
</g>
</svg>
