<svg width="274" height="242" viewBox="0 0 274 242" fill="none" xmlns="http://www.w3.org/2000/svg">
<mask id="mask0_3033_41525" style="mask-type:alpha" maskUnits="userSpaceOnUse" x="0" y="0" width="274" height="242">
<rect width="274" height="242" fill="#D9D9D9"/>
</mask>
<g mask="url(#mask0_3033_41525)">
<rect width="274" height="242" fill="#D9D9D9"/>
<rect width="274" height="274" transform="translate(-0.148438 -15.3911)" fill="#F1F0EE"/>
<rect x="55.5358" y="52.7455" width="164.851" height="140.175" rx="11.6521" fill="#0B0B0B" stroke="#0B0B0B" stroke-width="2.11856"/>
<rect x="49.8864" y="47.096" width="164.851" height="140.175" rx="11.6521" fill="white" stroke="#0B0B0B" stroke-width="2.11856"/>
<rect x="62.8728" y="84.729" width="138.878" height="91.6031" rx="6.00258" fill="white" stroke="#0B0B0B" stroke-width="2.11856"/>
<circle cx="132.076" cy="130.602" r="30.3358" stroke="#0B0B0B" stroke-width="2.11856"/>
<path d="M135.858 161.151C135.858 161.85 135.651 162.532 135.263 163.113C134.875 163.694 134.323 164.146 133.678 164.414C133.033 164.681 132.323 164.751 131.638 164.615C130.953 164.478 130.324 164.142 129.83 163.648C129.336 163.154 129 162.525 128.864 161.84C128.728 161.155 128.798 160.445 129.065 159.8C129.332 159.155 129.785 158.604 130.365 158.216C130.946 157.828 131.629 157.621 132.327 157.621C132.791 157.621 133.25 157.712 133.678 157.889C134.107 158.067 134.496 158.327 134.824 158.655C135.152 158.983 135.412 159.372 135.589 159.8C135.767 160.229 135.858 160.688 135.858 161.151Z" fill="#FF4A60" stroke="#0B0B0B" stroke-width="1.41237"/>
<line x1="48.8271" y1="73.1932" x2="215.797" y2="73.1932" stroke="#0B0B0B" stroke-width="2.11856"/>
<circle cx="65.276" cy="60.1446" r="2.70076" fill="#FF4A60" stroke="#FF4A60" stroke-width="1.76971"/>
<circle cx="75.528" cy="60.1444" r="2.70076" fill="#FFC224" stroke="#FFC224" stroke-width="1.76971"/>
<circle cx="85.7809" cy="60.1444" r="3.58561" fill="#81E644"/>
<rect x="193.363" y="89.0431" width="27.5691" height="78.2002" rx="6.00258" fill="white" stroke="#0B0B0B" stroke-width="2.11856"/>
<rect x="197.297" y="92.6516" width="19.7732" height="19.7732" rx="4.23711" fill="#1C92FF"/>
<rect opacity="0.8" x="197.297" y="116.662" width="19.7732" height="19.7732" rx="4.23711" fill="#1C92FF"/>
<rect opacity="0.4" x="197.297" y="140.672" width="19.7732" height="19.7732" rx="4.23711" fill="#1C92FF"/>
<rect x="227.265" y="96.4021" width="27.5691" height="78.2002" rx="6.00258" transform="rotate(16 227.265 96.4021)" fill="#0B0B0B" stroke="#0B0B0B" stroke-width="2.11856"/>
<rect x="225.147" y="92.8711" width="27.5691" height="78.2002" rx="6.00258" transform="rotate(16 225.147 92.8711)" fill="white" stroke="#0B0B0B" stroke-width="2.11856"/>
<rect x="227.873" y="97.6594" width="19.7732" height="19.7732" rx="4.23711" transform="rotate(16 227.873 97.6594)" fill="#FF4A60"/>
<rect opacity="0.8" x="221.256" y="120.74" width="19.7732" height="19.7732" rx="4.23711" transform="rotate(16 221.256 120.74)" fill="#FF4A60"/>
<rect opacity="0.4" x="214.637" y="143.82" width="19.7732" height="19.7732" rx="4.23711" transform="rotate(16 214.637 143.82)" fill="#FF4A60"/>
<circle cx="105.522" cy="115.956" r="3.53093" fill="#1C92FF" stroke="#0B0B0B" stroke-width="1.41237"/>
<circle cx="158.864" cy="115.956" r="3.53093" fill="#FFC224" stroke="#0B0B0B" stroke-width="1.41237"/>
<rect x="25.6934" y="110.306" width="58.6134" height="58.6134" rx="12.7113" fill="#0B0B0B"/>
<rect x="21.8093" y="106.422" width="56.4948" height="56.4948" rx="11.6521" fill="white" stroke="#0B0B0B" stroke-width="2.11856"/>
<path d="M65.4588 136.601L69.9419 132.118C70.0707 131.991 70.173 131.839 70.2429 131.673C70.3127 131.506 70.3487 131.327 70.3487 131.146C70.3487 130.965 70.3127 130.786 70.2429 130.619C70.173 130.452 70.0707 130.301 69.9419 130.174L58.2485 118.481C58.1216 118.352 57.9704 118.25 57.8036 118.18C57.6368 118.11 57.4577 118.074 57.2769 118.074C57.0961 118.074 56.917 118.11 56.7502 118.18C56.5834 118.25 56.4322 118.352 56.3053 118.481L51.8223 122.964" fill="#FFC224"/>
<path d="M47.8818 140.692C49.7646 140.692 51.2909 139.165 51.2909 137.283C51.2909 135.4 49.7646 133.873 47.8818 133.873C45.999 133.873 44.4727 135.4 44.4727 137.283C44.4727 139.165 45.999 140.692 47.8818 140.692Z" stroke="#0B0B0B" stroke-width="2.11856" stroke-linecap="round" stroke-linejoin="round"/>
<path d="M33.5635 151.601L45.4784 139.686" stroke="#0B0B0B" stroke-width="2.11856" stroke-linecap="round" stroke-linejoin="round"/>
<path d="M33.5635 151.601L57.3422 147.646C57.5769 147.606 57.7968 147.505 57.9795 147.352C58.1621 147.199 58.301 147.001 58.382 146.777L62.2003 136.601L48.5637 122.964L38.3874 126.782C38.1632 126.868 37.965 127.01 37.8126 127.196C37.6602 127.381 37.5586 127.603 37.5181 127.839L33.5635 151.601Z" stroke="#0B0B0B" stroke-width="2.11856" stroke-linecap="round" stroke-linejoin="round"/>
<path d="M62.2 136.601L66.6831 132.118C66.8119 131.991 66.9142 131.839 66.9841 131.673C67.0539 131.506 67.0899 131.327 67.0899 131.146C67.0899 130.965 67.0539 130.786 66.9841 130.619C66.9142 130.452 66.8119 130.301 66.6831 130.174L54.9897 118.481C54.8628 118.352 54.7116 118.25 54.5448 118.18C54.378 118.11 54.1989 118.074 54.0181 118.074C53.8373 118.074 53.6582 118.11 53.4914 118.18C53.3246 118.25 53.1734 118.352 53.0465 118.481L48.5635 122.964" stroke="#0B0B0B" stroke-width="2.11856" stroke-linecap="round" stroke-linejoin="round"/>
</g>
</svg>
