<svg width="274" height="242" viewBox="0 0 274 242" fill="none" xmlns="http://www.w3.org/2000/svg">
<mask id="mask0_3033_40955" style="mask-type:alpha" maskUnits="userSpaceOnUse" x="0" y="0" width="274" height="242">
<rect width="274" height="242" fill="#D9D9D9"/>
</mask>
<g mask="url(#mask0_3033_40955)">
<rect width="274" height="242" fill="#D9D9D9"/>
<rect width="274" height="273.565" transform="translate(-0.148438 -15.3667)" fill="#F1F0EE"/>
<rect x="54.7009" y="45.6067" width="177.693" height="154.67" rx="11.6521" fill="#0B0B0B" stroke="#0B0B0B" stroke-width="2.11856"/>
<rect x="54.7009" y="43.4892" width="168.046" height="148.323" rx="11.6521" fill="white" stroke="#0B0B0B" stroke-width="2.11856"/>
<line x1="55.4771" y1="62.1952" x2="222.08" y2="62.1952" stroke="#0B0B0B" stroke-width="2.11856"/>
<circle cx="67.0245" cy="52.8786" r="3.61679" fill="#FF4A60"/>
<circle cx="77.9059" cy="52.8786" r="3.61679" fill="#FFC224"/>
<circle cx="88.7867" cy="52.8786" r="3.61679" fill="#81E644"/>
<path d="M58.2026 146.569L26.7122 153.008C26.3843 153.101 26.118 153.308 25.947 153.603C25.776 153.897 25.708 154.266 25.7515 154.663C25.795 155.059 25.9481 155.466 26.1914 155.831C26.4348 156.196 26.7575 156.504 27.1188 156.714L38.9353 164.295L43.4132 177.586C43.5298 177.987 43.7497 178.375 44.0449 178.699C44.3402 179.024 44.6977 179.272 45.0723 179.411C45.4469 179.549 45.8217 179.574 46.1496 179.48C46.4775 179.386 46.7436 179.179 46.9144 178.884L60.8554 149.967C60.9991 149.631 61.0307 149.228 60.9464 148.807C60.8621 148.386 60.6656 147.968 60.3818 147.604C60.0979 147.241 59.7394 146.948 59.3515 146.764C58.9637 146.58 58.5639 146.512 58.2026 146.569V146.569Z" fill="#0B0B0B"/>
<path d="M56.7275 141.11L25.2371 147.549C24.9092 147.642 24.6429 147.849 24.4719 148.144C24.3009 148.439 24.2329 148.807 24.2764 149.204C24.3199 149.601 24.473 150.007 24.7163 150.372C24.9597 150.737 25.2824 151.045 25.6437 151.256L37.4602 158.836L41.9381 172.127C42.0547 172.528 42.2746 172.916 42.5698 173.241C42.8651 173.565 43.2226 173.813 43.5972 173.952C43.9718 174.091 44.3466 174.115 44.6745 174.021C45.0023 173.928 45.2685 173.72 45.4393 173.426L59.3803 144.508C59.524 144.172 59.5556 143.769 59.4713 143.348C59.387 142.928 59.1905 142.509 58.9067 142.146C58.6228 141.782 58.2643 141.49 57.8764 141.305C57.4886 141.121 57.0888 141.053 56.7275 141.11V141.11Z" fill="#FFC224" stroke="#0B0B0B" stroke-width="2.11856" stroke-linecap="round" stroke-linejoin="round"/>
<path d="M82.9079 117.758L79.9951 125.469H70.9712L86.6202 85.0324H95.9868L111.407 125.469H102.326L99.5279 117.758H82.9079ZM85.3066 110.448H97.072L91.2464 93.7707L85.3066 110.448Z" fill="#0B0B0B"/>
<path d="M133.03 121.731C131.962 123.095 130.664 124.067 129.134 124.647C127.603 125.227 125.824 125.5 123.796 125.466C121.198 125.397 119.028 124.698 117.284 123.368C116.359 122.618 115.63 121.731 115.096 120.708C114.598 119.65 114.349 118.405 114.349 116.973C114.384 115.506 114.722 114.21 115.363 113.084C116.039 111.925 117.053 110.97 118.405 110.219C119.544 109.639 120.825 109.23 122.248 108.991C123.707 108.753 125.291 108.633 126.999 108.633H132.763C132.87 106.962 132.461 105.717 131.535 104.898C130.646 104.046 129.383 103.602 127.746 103.568C127.212 103.568 126.66 103.602 126.091 103.67C125.522 103.739 124.988 103.875 124.49 104.08C124.027 104.284 123.618 104.574 123.262 104.949C122.942 105.29 122.729 105.717 122.622 106.228H114.882C115.06 104.591 115.523 103.227 116.27 102.135C117.053 101.01 118.032 100.106 119.206 99.4238C120.38 98.7416 121.679 98.2641 123.102 97.9913C124.561 97.6843 126.056 97.5308 127.586 97.5308C128.44 97.5308 129.311 97.582 130.201 97.6843C131.091 97.7525 131.962 97.923 132.816 98.1959C133.67 98.4347 134.471 98.7758 135.218 99.2192C136.001 99.6285 136.731 100.174 137.407 100.856C138.617 102.187 139.364 103.721 139.648 105.461C139.969 107.166 140.111 108.838 140.075 110.475V125.056H133.19L133.03 121.731ZM132.763 113.135H127.265C126.732 113.135 126.127 113.187 125.451 113.289C124.775 113.391 124.187 113.579 123.689 113.852C123.191 114.125 122.764 114.483 122.408 114.926C122.088 115.37 121.928 115.915 121.928 116.563C121.928 117.109 122.035 117.587 122.248 117.996C122.497 118.405 122.8 118.746 123.156 119.019C123.547 119.292 124.01 119.514 124.543 119.684C125.077 119.821 125.611 119.889 126.145 119.889C127.176 119.923 128.137 119.753 129.027 119.377C129.952 119.002 130.753 118.473 131.429 117.791C131.856 117.246 132.176 116.632 132.389 115.949C132.639 115.233 132.763 114.295 132.763 113.135Z" fill="#0B0B0B"/>
<line x1="163.011" y1="88.3055" x2="202.051" y2="88.3055" stroke="#0B0B0B" stroke-width="2.11856" stroke-linecap="round"/>
<line x1="163.011" y1="102.747" x2="202.051" y2="102.747" stroke="#0B0B0B" stroke-width="2.11856" stroke-linecap="round"/>
<line x1="163.011" y1="116.467" x2="202.051" y2="116.467" stroke="#0B0B0B" stroke-width="2.11856" stroke-linecap="round"/>
<rect x="76.1196" y="148.214" width="75.5619" height="21.8918" rx="4.23711" fill="#FFC224"/>
<rect x="71.9362" y="143.858" width="72.9773" height="19.5437" rx="3.17783" stroke="#0B0B0B" stroke-width="2.11856"/>
<rect x="162.918" y="130.86" width="41.206" height="39.7618" rx="7.41495" fill="white" stroke="#0B0B0B" stroke-width="2.11856"/>
<path d="M183.496 141.826V158.651" stroke="#0B0B0B" stroke-width="2.11856" stroke-linecap="round" stroke-linejoin="round"/>
<path d="M174.134 145.565V141.826H192.858V145.565" stroke="#0B0B0B" stroke-width="2.11856" stroke-linecap="round" stroke-linejoin="round"/>
<path d="M179.751 158.651H187.241" stroke="#0B0B0B" stroke-width="2.11856" stroke-linecap="round" stroke-linejoin="round"/>
</g>
</svg>
