<svg width="416" height="389" viewBox="0 0 416 389" fill="none" xmlns="http://www.w3.org/2000/svg">
<rect width="416" height="389" fill="#137AFD"/>
<rect x="94.3008" y="52.9258" width="249.397" height="305.146" rx="30.5" fill="#0B0B0B" stroke="#0B0B0B" stroke-width="3"/>
<rect x="83.3008" y="41.9272" width="249.397" height="305.146" rx="30.5" fill="white" stroke="#0B0B0B" stroke-width="3"/>
<rect x="242.75" y="225.132" width="73.1586" height="73.1503" rx="15" fill="#1C92FF"/>
<rect x="235.105" y="217.488" width="70.1586" height="70.1503" rx="13.5" stroke="#0B0B0B" stroke-width="3"/>
<rect x="107.404" y="301.494" width="57.6124" height="15.5444" rx="7.77222" fill="#ECEAE8"/>
<rect x="106.16" y="297.507" width="55.5269" height="14.3732" rx="7.1866" stroke="#0B0B0B" stroke-width="3"/>
<line x1="107.076" y1="219.06" x2="194.61" y2="219.06" stroke="#0B0B0B" stroke-width="3" stroke-linecap="round"/>
<line x1="126.279" y1="245.576" x2="211.07" y2="245.576" stroke="#0B0B0B" stroke-width="3" stroke-linecap="round"/>
<ellipse cx="113.348" cy="249.362" rx="5.94414" ry="5.94346" fill="#7099FF"/>
<path d="M117.35 246.853C117.35 249.941 114.846 252.445 111.757 252.445C108.668 252.445 106.164 249.941 106.164 246.853C106.164 243.765 108.668 241.261 111.757 241.261C114.846 241.261 117.35 243.765 117.35 246.853Z" stroke="#0B0B0B" stroke-width="3"/>
<line x1="126.279" y1="271.179" x2="196.438" y2="271.179" stroke="#0B0B0B" stroke-width="3" stroke-linecap="round"/>
<path d="M117.346 272.456C117.346 275.544 114.842 278.048 111.753 278.048C108.664 278.048 106.16 275.544 106.16 272.456C106.16 269.368 108.664 266.864 111.753 266.864C114.842 266.864 117.346 269.368 117.346 272.456Z" stroke="#0B0B0B" stroke-width="3"/>
<path d="M208.259 89.5726C208.567 90.3691 208.522 91.2587 208.137 92.0207C207.752 92.7827 207.062 93.3458 206.238 93.5703L203.213 94.4173L177.054 101.722C176.018 102 174.911 101.708 174.147 100.954C173.383 100.201 173.075 99.0987 173.339 98.0584L180.072 71.754L180.726 69.2276C180.927 68.4147 181.459 67.7227 182.192 67.318C182.926 66.9133 183.794 66.8325 184.59 67.095C195.356 70.8187 203.985 79.0143 208.259 89.5726V89.5726Z" fill="#7099FF"/>
<path d="M205.877 126.672C203.516 146.796 189.104 163.438 169.522 168.652C149.941 173.866 129.16 166.595 117.103 150.31C105.045 134.026 104.155 112.031 114.857 94.8256C125.56 77.6205 145.685 68.6948 165.624 72.31C166.486 72.4795 167.24 72.9948 167.712 73.7357C168.183 74.4767 168.33 75.3784 168.118 76.2306L167.138 80.0257L158.409 114.119C158.127 115.226 158.455 116.399 159.272 117.198C160.089 117.997 161.269 118.299 162.37 117.992L196.255 108.512L200.89 107.219C201.728 106.987 202.626 107.106 203.374 107.55C204.123 107.994 204.659 108.724 204.858 109.571C206.195 115.168 206.54 120.956 205.877 126.672V126.672Z" fill="#1C92FF"/>
<path d="M203.133 120.464C200.772 140.588 186.36 157.23 166.778 162.444C147.197 167.658 126.416 160.387 114.358 144.102C102.301 127.818 101.411 105.823 112.113 88.6176C122.816 71.4124 142.941 62.4868 162.88 66.102C163.742 66.2714 164.496 66.7868 164.967 67.5277C165.439 68.2686 165.586 69.1704 165.374 70.0226L164.393 73.8177L155.665 107.911C155.382 109.018 155.711 110.191 156.528 110.99C157.344 111.789 158.525 112.091 159.625 111.784L193.511 102.304L198.145 101.011C198.984 100.779 199.882 100.898 200.63 101.342C201.379 101.786 201.915 102.516 202.113 103.363C203.451 108.96 203.796 114.748 203.133 120.464V120.464Z" stroke="#0B0B0B" stroke-width="3"/>
<path d="M204.353 84.0868C204.661 84.8833 204.616 85.7729 204.231 86.5349C203.846 87.2969 203.155 87.86 202.331 88.0844L199.307 88.9315L173.148 96.2358C172.112 96.5138 171.005 96.2218 170.241 95.4683C169.477 94.7148 169.169 93.6128 169.432 92.5725L176.165 66.2681L176.819 63.7417C177.021 62.9289 177.553 62.2369 178.286 61.8322C179.019 61.4275 179.888 61.3467 180.684 61.6092C191.449 65.3329 200.079 73.5284 204.353 84.0868V84.0868Z" stroke="#0B0B0B" stroke-width="3"/>
<rect x="230.859" y="141.007" width="57.6124" height="15.5444" rx="7.77222" fill="#ECEAE8"/>
<rect x="229.615" y="137.021" width="55.5269" height="14.3732" rx="7.1866" stroke="#0B0B0B" stroke-width="3"/>
<line x1="229.615" y1="74.5869" x2="267.923" y2="74.5869" stroke="#0B0B0B" stroke-width="3" stroke-linecap="round"/>
<line x1="229.627" y1="95.6177" x2="309.243" y2="95.6177" stroke="#0B0B0B" stroke-width="3" stroke-linecap="round"/>
<line x1="229.619" y1="116.648" x2="301.513" y2="116.648" stroke="#0B0B0B" stroke-width="3" stroke-linecap="round"/>
<line x1="84.541" y1="187.971" x2="332.366" y2="187.971" stroke="#0B0B0B" stroke-width="3"/>
</svg>
