<svg width="1440" height="810" viewBox="0 0 1440 810" fill="none" xmlns="http://www.w3.org/2000/svg">
<rect width="1440" height="810" fill="white"/>
<rect x="49.4531" y="44.4612" width="1341.1" height="721.078" rx="68.0433" fill="#137AFD"/>
<mask id="path-3-inside-1_3115_42234" fill="white">
<path d="M202.68 162.116C202.68 139.899 220.691 121.888 242.908 121.888H1198.52C1220.73 121.888 1238.74 139.899 1238.74 162.116V646.972C1238.74 669.19 1220.73 687.201 1198.52 687.201H242.908C220.691 687.201 202.68 669.19 202.68 646.972V162.116Z"/>
</mask>
<path d="M202.68 162.116C202.68 139.899 220.691 121.888 242.908 121.888H1198.52C1220.73 121.888 1238.74 139.899 1238.74 162.116V646.972C1238.74 669.19 1220.73 687.201 1198.52 687.201H242.908C220.691 687.201 202.68 669.19 202.68 646.972V162.116Z" fill="#F9FAFC"/>
<path d="M242.908 128.744H1198.52V115.031H242.908V128.744ZM1231.89 162.116V646.972H1245.6V162.116H1231.89ZM1198.52 680.344H242.908V694.057H1198.52V680.344ZM209.536 646.972V162.116H195.823V646.972H209.536ZM242.908 680.344C224.477 680.344 209.536 665.403 209.536 646.972H195.823C195.823 672.977 216.904 694.057 242.908 694.057V680.344ZM1231.89 646.972C1231.89 665.403 1216.95 680.344 1198.52 680.344V694.057C1224.52 694.057 1245.6 672.977 1245.6 646.972H1231.89ZM1198.52 128.744C1216.95 128.744 1231.89 143.685 1231.89 162.116H1245.6C1245.6 136.112 1224.52 115.031 1198.52 115.031V128.744ZM242.908 115.031C216.904 115.031 195.823 136.112 195.823 162.116H209.536C209.536 143.685 224.477 128.744 242.908 128.744V115.031Z" fill="#0B0B0B" mask="url(#path-3-inside-1_3115_42234)"/>
<rect x="535.697" y="175.335" width="248.738" height="34.9466" rx="8.04571" fill="#1C92FF"/>
<rect x="526.281" y="164.806" width="246.238" height="32.2946" rx="5.02857" stroke="#0B0B0B" stroke-width="6.03429"/>
<path d="M208.848 160.051C208.848 142.38 223.173 128.055 240.845 128.055H463.753V678.978H240.845C223.173 678.978 208.848 664.653 208.848 646.981V160.051Z" fill="white"/>
<line x1="467.19" y1="121.551" x2="467.19" y2="685.35" stroke="#0B0B0B" stroke-width="6.85647"/>
<line x1="244.753" y1="396.43" x2="408.345" y2="396.43" stroke="#0B0B0B" stroke-width="6.03429" stroke-linecap="round"/>
<line x1="244.753" y1="289.534" x2="408.345" y2="289.534" stroke="#0B0B0B" stroke-width="6.03429" stroke-linecap="round"/>
<line x1="244.753" y1="342.982" x2="345.223" y2="342.982" stroke="#0B0B0B" stroke-width="6.03429" stroke-linecap="round"/>
<line x1="244.753" y1="449.878" x2="376.109" y2="449.878" stroke="#0B0B0B" stroke-width="6.03429" stroke-linecap="round"/>
<rect x="254.072" y="510.412" width="158.288" height="45.2251" rx="22.6125" fill="#F1F0EE"/>
<rect x="242.339" y="499.039" width="158.947" height="44.6715" rx="22.3357" stroke="#0B0B0B" stroke-width="6.03429"/>
<line x1="244.753" y1="236.087" x2="384.372" y2="236.087" stroke="#0B0B0B" stroke-width="6.03429" stroke-linecap="round"/>
<line x1="244.753" y1="182.639" x2="325.839" y2="182.639" stroke="#0B0B0B" stroke-width="6.03429" stroke-linecap="round"/>
<line x1="526.283" y1="539.591" x2="785.641" y2="539.591" stroke="#0B0B0B" stroke-width="6.03429" stroke-linecap="round"/>
<line x1="526.283" y1="576.593" x2="840.963" y2="576.593" stroke="#0B0B0B" stroke-width="6.03429" stroke-linecap="round"/>
<line x1="526.283" y1="613.596" x2="745.393" y2="613.596" stroke="#0B0B0B" stroke-width="6.03429" stroke-linecap="round"/>
<line x1="908.005" y1="271.43" x2="1131.24" y2="271.43" stroke="#0B0B0B" stroke-width="6.03429" stroke-linecap="round"/>
<line x1="908.005" y1="320.766" x2="1179.04" y2="320.766" stroke="#0B0B0B" stroke-width="6.03429" stroke-linecap="round"/>
<line x1="908.005" y1="370.102" x2="1096.47" y2="370.102" stroke="#0B0B0B" stroke-width="6.03429" stroke-linecap="round"/>
<line x1="908.005" y1="419.439" x2="1131.24" y2="419.439" stroke="#0B0B0B" stroke-width="6.03429" stroke-linecap="round"/>
<line x1="908.005" y1="468.775" x2="1179.04" y2="468.775" stroke="#0B0B0B" stroke-width="6.03429" stroke-linecap="round"/>
<rect x="908.013" y="165.547" width="120.62" height="32.892" rx="16.446" stroke="#0B0B0B" stroke-width="6.03429"/>
<rect x="1055.79" y="175.335" width="125.397" height="34.9466" rx="17.4733" fill="#ECEAE8"/>
<rect x="1052.86" y="165.547" width="120.62" height="32.892" rx="16.446" stroke="#0B0B0B" stroke-width="6.03429"/>
<path d="M843.986 379.285C843.986 362.611 839.658 346.222 831.425 331.722C823.192 317.223 811.336 305.108 797.018 296.564C782.699 288.02 766.408 283.339 749.738 282.979C733.068 282.619 716.59 286.593 701.915 294.51C687.241 302.428 674.874 314.02 666.023 328.15C657.171 342.281 652.14 358.468 651.42 375.126C650.7 391.785 654.317 408.345 661.916 423.186C669.515 438.028 680.837 450.643 694.773 459.797L718.983 422.94C711.427 417.976 705.288 411.136 701.168 403.089C697.047 395.041 695.086 386.062 695.476 377.03C695.867 367.997 698.595 359.221 703.394 351.559C708.193 343.897 714.899 337.612 722.856 333.319C730.812 329.026 739.747 326.871 748.786 327.067C757.824 327.262 766.658 329.8 774.421 334.433C782.185 339.065 788.613 345.634 793.077 353.496C797.541 361.358 799.888 370.244 799.888 379.285H843.986Z" fill="#7099FF"/>
<path d="M747.662 282.956C764.336 282.956 780.725 287.284 795.225 295.517C809.724 303.75 821.839 315.606 830.383 329.924C838.927 344.243 843.608 360.534 843.968 377.204C844.328 393.875 840.355 410.353 832.437 425.027C824.519 439.701 812.927 452.068 798.797 460.92C784.666 469.771 768.479 474.802 751.821 475.522C735.162 476.242 718.602 472.626 703.761 465.026C688.919 457.427 676.304 446.106 667.15 432.169L703.856 408.059C708.837 415.641 715.7 421.801 723.776 425.936C731.851 430.071 740.861 432.038 749.925 431.647C758.989 431.255 767.796 428.517 775.484 423.702C783.173 418.886 789.479 412.157 793.788 404.172C798.096 396.188 800.257 387.223 800.062 378.153C799.866 369.082 797.319 360.218 792.67 352.428C788.021 344.637 781.43 338.187 773.541 333.707C765.651 329.228 756.735 326.873 747.662 326.873L747.662 282.956Z" fill="#1C92FF"/>
<circle cx="740.839" cy="368.597" r="93.4743" stroke="#0B0B0B" stroke-width="6.03429"/>
<circle cx="740.837" cy="370.525" r="51.7421" stroke="#0B0B0B" stroke-width="6.03429"/>
<rect x="535.699" y="269.897" width="59.6148" height="59.6148" rx="12.0686" fill="#7099FF"/>
<rect x="526.283" y="262.22" width="54.7475" height="54.7475" rx="11.0629" stroke="#0B0B0B" stroke-width="6.03429"/>
<rect x="535.699" y="348.013" width="59.6148" height="61.6705" rx="12.0686" fill="#7099FF"/>
<rect x="526.283" y="341.503" width="54.7475" height="54.7475" rx="11.0629" stroke="#0B0B0B" stroke-width="6.03429"/>
<rect x="535.699" y="428.185" width="59.6148" height="59.6148" rx="12.0686" fill="#1C92FF"/>
<rect x="526.283" y="420.786" width="54.7475" height="54.7475" rx="11.0629" stroke="#0B0B0B" stroke-width="6.03429"/>
<path d="M897.392 585.887H914.844C917.658 585.887 919.939 588.168 919.939 590.982V618.766H892.296V590.982C892.296 588.168 894.578 585.887 897.392 585.887Z" stroke="black" stroke-width="6.03429"/>
<path d="M946.196 533.986H963.648C966.462 533.986 968.744 536.267 968.744 539.081V617.946H941.101V539.081C941.101 536.267 943.382 533.986 946.196 533.986Z" stroke="black" stroke-width="6.03429"/>
<path d="M998.021 572.602C998.021 568.122 1001.65 564.49 1006.13 564.49H1018.55C1023.03 564.49 1026.66 568.122 1026.66 572.602V628.383H998.021V572.602Z" fill="#7099FF"/>
<path d="M994.972 557.712H1012.42C1015.24 557.712 1017.52 559.994 1017.52 562.808V621.65H989.877V562.808C989.877 559.994 992.158 557.712 994.972 557.712Z" stroke="black" stroke-width="6.03429"/>
<path d="M1045.42 583.514H1062.87C1065.69 583.514 1067.97 585.795 1067.97 588.61V620.144H1040.33V588.61C1040.33 585.795 1042.61 583.514 1045.42 583.514Z" stroke="black" stroke-width="6.03429"/>
<path d="M1096.64 594.377H1115.77C1119.01 594.377 1121.64 597.007 1121.64 600.251V619.599H1090.77V600.251C1090.77 597.007 1093.4 594.377 1096.64 594.377Z" stroke="black" stroke-width="6.03429"/>
<path d="M1154.46 583.029C1154.46 578.119 1158.44 574.138 1163.35 574.138H1176.41C1181.32 574.138 1185.3 578.119 1185.3 583.029V627.586H1154.46V583.029Z" fill="#1C92FF"/>
<path d="M1151.96 566.616H1171.09C1174.33 566.616 1176.96 569.246 1176.96 572.49V618.572H1146.09V572.49C1146.09 569.246 1148.72 566.616 1151.96 566.616Z" stroke="black" stroke-width="6.03429"/>
</svg>
